<svg xmlns="http://www.w3.org/2000/svg" width="15.49" height="16.904" viewBox="0 0 15.49 16.904">
  <path id="filter" d="M10.157,16.9a.7.7,0,0,1-.423-.141L6.917,14.65a.7.7,0,0,1-.282-.563V10.128L1.694,4.569A2.747,2.747,0,0,1,3.748,0h10A2.747,2.747,0,0,1,15.8,4.57l-4.939,5.559V16.2A.7.7,0,0,1,10.157,16.9ZM8.044,13.734l1.409,1.056V9.861a.7.7,0,0,1,.178-.468L14.75,3.634a1.338,1.338,0,0,0-1-2.225h-10a1.338,1.338,0,0,0-1,2.224l5.12,5.76a.7.7,0,0,1,.177.468Z" transform="translate(-1.002)" fill="#59595b"/>
</svg>
